<svg width="26" height="20" viewBox="0 0 26 20" fill="none" xmlns="http://www.w3.org/2000/svg">
<g clip-path="url(#clip0_81_998)">
<path d="M6.80033 11.2999C6.70033 12.9999 8.00032 14.3999 9.70033 14.4999C11.4003 14.3999 12.7003 12.8999 12.6003 11.1999C12.7003 9.4999 11.4003 7.9999 9.70033 7.8999C8.00032 8.0999 6.70033 9.5999 6.80033 11.2999ZM10.5003 11.2999C10.5003 11.9999 10.1003 12.5999 9.60033 12.5999C9.10033 12.5999 8.70033 11.9999 8.70033 11.2999C8.70033 10.5999 9.20033 9.9999 9.70033 9.9999C10.2003 9.9999 10.5003 10.5999 10.5003 11.2999Z" fill="white"/>
<path d="M16.2003 8C14.5003 8.1 13.2003 9.6 13.3003 11.3C13.2003 13 14.5003 14.4 16.2003 14.6C17.9003 14.5 19.2003 13 19.1003 11.3C19.2003 9.6 17.9003 8.1 16.2003 8ZM16.2003 12.5C15.7003 12.5 15.3003 11.9 15.3003 11.2C15.3003 10.5 15.7003 9.9 16.2003 9.9C16.7003 9.9 17.1003 10.5 17.1003 11.2C17.1003 11.9 16.7003 12.5 16.2003 12.5Z" fill="white"/>
<path d="M23.6 4.39986C23.5 4.29986 23.5 4.19986 23.5 4.19986C21.8 2.09986 19.4 0.599862 16.7 -0.000138313C16.2 -0.200138 15.6 0.199862 15.5 0.699862C15.4 1.19986 15.7 1.79986 16.2 1.89986C16.2 1.89986 16.2 1.89986 16.3 1.89986C18.5 2.39986 20.5 3.59986 21.9 5.29986C23.2 8.39986 24 11.6999 24 15.0999C22.6 16.3999 20.9 17.2999 19 17.5999V17.1999C19 17.1999 19 17.1999 19 17.0999C20.2 16.5999 21.4 15.9999 22.4 15.0999C22.8 14.7999 22.9 14.0999 22.6 13.6999C22.3 13.2999 21.6 13.1999 21.2 13.4999C18.9 15.2999 16 16.1999 13 16.0999C10.1 16.1999 7.2 15.2999 4.9 13.4999C4.5 13.1999 3.8 13.1999 3.5 13.6999C3.2 14.1999 3.2 14.7999 3.7 15.0999C4.7 15.8999 5.9 16.5999 7.1 17.0999V17.5999C5.2 17.2999 3.5 16.3999 2.1 15.0999C2.1 11.6999 2.8 8.39986 4.2 5.29986C5.5 3.59986 7.5 2.49986 9.7 1.99986C10.2 1.79986 10.5 1.29986 10.4 0.799862C10.3 0.199862 9.8 -0.100138 9.2 -0.000138313C6.5 0.599862 4.1 1.99986 2.4 4.19986V4.29986V4.39986C0.4 8.39986 0.2 11.9999 0 15.4999C0 15.7999 0.1 16.0999 0.3 16.2999C2.3 18.3999 5 19.5999 7.9 19.8999C8.2 19.8999 8.4 19.7999 8.6 19.5999C8.8 19.3999 8.9 19.1999 8.9 18.8999V17.8999C11.5 18.4999 14.3 18.4999 16.9 17.8999V18.8999C16.9 19.1999 17 19.3999 17.2 19.5999C17.4 19.7999 17.6 19.8999 17.9 19.8999C20.8 19.6999 23.6 18.4999 25.6 16.3999C25.8 16.1999 25.9 15.8999 25.9 15.5999C25.7 11.9999 25.5 8.39986 23.6 4.39986Z" fill="white"/>
<path d="M20.3988 5.59989C20.6988 5.09989 20.4988 4.49989 19.9988 4.29989C17.7988 3.29989 15.3988 2.69989 12.8988 2.79989C10.4988 2.69989 7.99877 3.29989 5.79877 4.29989C5.39877 4.49989 5.19877 5.09989 5.39877 5.59989C5.69877 6.09989 6.29877 6.19989 6.79877 5.99989C8.69877 5.09989 10.7988 4.69989 12.8988 4.69989C14.9988 4.69989 17.1988 5.09989 19.0988 5.99989C19.1988 6.09989 19.3988 6.09989 19.5988 6.09989C19.8988 6.09989 20.1988 5.89989 20.3988 5.59989Z" fill="white"/>
</g>
<defs>
<clipPath id="clip0_81_998">
<rect width="26" height="19.8" fill="white"/>
</clipPath>
</defs>
</svg>
