<svg width="29" height="16" viewBox="0 0 29 16" fill="none" xmlns="http://www.w3.org/2000/svg">
<g clip-path="url(#clip0_81_986)">
<path d="M27 13.9001C26.6 13.5001 26 11.6001 26 8.0001C26 4.4001 26.6 2.4001 26.9 2.1001C27.3 2.5001 27.8 4.6001 27.8 8.0001C27.9 11.6001 27.3 13.5001 27 13.9001Z" stroke="white" stroke-width="2" stroke-miterlimit="10" stroke-linecap="round" stroke-linejoin="round"/>
<path d="M20.4992 14.5999C18.6992 14.5999 17.1992 11.5999 17.1992 7.9999C17.1992 5.4999 17.8992 3.1999 18.9992 2.0999C19.4992 1.5999 19.9992 1.3999 20.4992 1.3999C21.2992 1.3999 22.1992 2.0999 22.7992 3.1999C23.4992 4.4999 23.8992 6.1999 23.8992 7.9999C23.8992 11.5999 22.2992 14.5999 20.4992 14.5999Z" stroke="white" stroke-width="2" stroke-miterlimit="10" stroke-linecap="round" stroke-linejoin="round"/>
<path d="M7.9 15C4.1 15 1 11.9 1 8C1 6.1 1.7 4.4 3 3C4.3 1.7 6.1 1 7.9 1C9.8 1 11.5 1.7 12.8 3.1C14.1 4.4 14.8 6.2 14.8 8.1C14.9 11.9 11.7 15 7.9 15Z" stroke="white" stroke-width="2" stroke-miterlimit="10" stroke-linecap="round" stroke-linejoin="round"/>
</g>
<defs>
<clipPath id="clip0_81_986">
<rect width="28.9" height="16" fill="white"/>
</clipPath>
</defs>
</svg>
