<svg width="23" height="20" viewBox="0 0 23 20" fill="none" xmlns="http://www.w3.org/2000/svg">
<path d="M22.1569 0.444444C21.6569 0.0444444 20.8569 -0.155556 20.2569 0.144444L0.956922 7.94444C0.156922 8.24444 -0.243078 9.14444 0.156922 9.94444C0.356922 10.3444 0.656922 10.6444 0.956922 10.7444L2.15692 11.2444C2.55692 11.4444 3.05692 11.2444 3.25692 10.8444C3.45692 10.4444 3.25692 9.94444 2.75692 9.74444L1.95692 9.34444L20.8569 1.74444C20.9569 1.74444 20.9569 1.74444 21.0569 1.74444C21.1569 1.74444 21.1569 1.84444 21.1569 1.94444L17.7569 18.0444C17.7569 18.1444 17.6569 18.2444 17.5569 18.3444C17.4569 18.3444 17.3569 18.3444 17.2569 18.2444L10.4569 13.0444L17.0569 6.34444C17.3569 6.04444 17.3569 5.44444 17.0569 5.14444C16.7569 4.84444 16.3569 4.84444 16.0569 5.04444L6.35692 10.7444C5.95692 10.9444 5.75692 11.4444 5.95692 11.8444C6.15692 12.2444 6.65692 12.4444 7.05692 12.2444C7.15692 12.2444 7.15692 12.1444 7.15692 12.1444L11.2569 9.74444L9.25692 11.7444C8.55692 12.3444 8.55692 13.4444 9.15692 14.1444C9.25692 14.2444 9.35692 14.2444 9.35692 14.3444L16.0569 19.5444C16.4569 19.8444 16.8569 19.9444 17.2569 19.9444C17.4569 19.9444 17.7569 19.9444 17.9569 19.8444C18.6569 19.6444 19.0569 19.0444 19.2569 18.3444L22.6569 2.24444C22.9569 1.64444 22.7569 0.944444 22.1569 0.444444Z" fill="white"/>
</svg>
