<svg width="24" height="21" viewBox="0 0 24 21" fill="none" xmlns="http://www.w3.org/2000/svg">
<path d="M23.3004 2.99987C23.2004 2.89987 23.2004 2.89987 23.1004 2.79987C23.3004 2.39987 23.4004 1.99987 23.5004 1.59987C23.6004 1.29987 23.4004 0.899873 23.1004 0.699873C22.8004 0.499873 22.4004 0.499873 22.1004 0.699873C21.5004 1.09987 20.8004 1.39987 20.1004 1.49987C18.4004 -0.100128 15.9004 -0.400128 13.8004 0.599872C11.6004 1.69987 10.5004 4.19987 11.1004 6.59987C11.2004 7.09987 11.7004 7.39987 12.2004 7.29987C12.7004 7.19987 13.0004 6.69987 12.9004 6.19987C12.5004 4.59987 13.2004 2.99987 14.7004 2.19987C16.2004 1.39987 18.1004 1.79987 19.2004 3.09987C19.4004 3.29987 19.7004 3.39987 20.0004 3.29987H20.2004C19.9004 3.69987 19.9004 4.19987 20.2004 4.59987C20.3004 4.69987 20.4004 4.69987 20.5004 4.79987C20.3004 4.99987 20.1004 5.29987 20.2004 5.59987C20.5004 9.39987 18.9004 13.1999 15.9004 15.5999C12.8004 18.2999 8.50039 18.9999 4.70039 17.5999C6.20039 17.2999 7.60039 16.6999 8.70039 15.6999C8.90039 15.3999 9.00039 15.0999 8.80039 14.6999C8.60039 14.3999 8.30039 14.1999 8.00039 14.1999C7.00039 14.1999 6.00039 13.6999 5.30039 12.9999C5.60039 12.8999 5.90039 12.7999 6.20039 12.6999C6.50039 12.4999 6.70039 12.1999 6.70039 11.7999C6.70039 11.3999 6.40039 11.0999 6.00039 11.0999C4.80039 10.7999 3.80039 9.99987 3.30039 8.89987C3.50039 8.89987 3.70039 8.89987 4.00039 8.99987C4.40039 8.99987 4.70039 8.79987 4.90039 8.49987C5.00039 8.09987 4.90039 7.69987 4.60039 7.49987C3.10039 6.19987 2.80039 4.69987 3.00039 3.69987C4.70039 5.49987 6.80039 6.69987 9.20039 7.19987C9.70039 7.29987 10.2004 6.99987 10.3004 6.49987C10.4004 5.99987 10.1004 5.49987 9.60039 5.39987C7.20039 4.79987 5.10039 3.49987 3.60039 1.49987C3.40039 1.29987 3.20039 1.19987 2.90039 1.19987C2.60039 1.19987 2.40039 1.29987 2.20039 1.49987C1.00039 2.99987 0.900391 5.19987 1.90039 6.79987H1.80039C1.50039 6.89987 1.40039 7.19987 1.30039 7.49987C1.30039 8.99987 1.90039 10.4999 3.00039 11.4999C2.80039 11.6999 2.70039 12.0999 2.80039 12.3999C3.30039 13.7999 4.30039 14.8999 5.60039 15.5999C4.20039 16.0999 2.70039 16.3999 1.30039 16.3999C0.80039 16.3999 0.400391 16.7999 0.400391 17.2999C0.400391 17.5999 0.60039 17.8999 0.80039 18.0999C3.10039 19.4999 5.70039 20.2999 8.30039 20.2999C11.4004 20.2999 14.4004 19.0999 16.8004 17.0999C20.1004 14.3999 22.0004 10.3999 21.8004 6.09987C22.5004 5.59987 23.0004 4.89987 23.2004 4.09987C23.6004 3.49987 23.5004 3.19987 23.3004 2.99987Z" fill="white"/>
</svg>
